<?xml version="1.0" standalone="no"?>
<!DOCTYPE svg PUBLIC "-//W3C//DTD SVG 20010904//EN" "http://www.w3.org/TR/2001/REC-SVG-20010904/DTD/svg10.dtd">
<svg version="1.0" xmlns="http://www.w3.org/2000/svg" width="980.000000pt" height="980.000000pt"
    viewBox="0 0 980.000000 980.000000" preserveAspectRatio="xMidYMid meet">

    <g transform="translate(0.000000,980.000000) scale(0.100000,-0.100000)" fill="#000000" stroke="none">
        <path d="M2450 9793 c-25 -2 -108 -12 -185 -23 -983 -139 -1813 -834 -2129
-1783 -261 -784 -141 -1652 325 -2337 430 -632 1108 -1044 1884 -1141 165 -21
514 -16 685 10 586 88 1094 343 1501 750 411 412 661 912 750 1501 26 171 31
520 10 685 -130 1035 -818 1881 -1795 2209 -316 107 -706 155 -1046 129z m452
-828 c941 -125 1621 -936 1585 -1890 -7 -187 -35 -341 -92 -512 -251 -754
-944 -1253 -1740 -1253 -457 0 -880 160 -1228 464 -266 233 -470 576 -561 941
-61 247 -61 613 0 860 91 368 292 703 566 945 282 249 625 401 1023 453 75 10
350 5 447 -8z" />
        <path d="M6000 6924 c-109 -29 -199 -106 -248 -212 l-27 -57 0 -1755 0 -1755
31 -65 c35 -72 98 -141 159 -172 95 -49 28 -48 1846 -48 1686 0 1708 0 1773
20 109 34 202 123 242 234 18 49 19 121 22 1751 2 1240 0 1716 -8 1760 -30
154 -129 262 -276 300 -87 22 -3430 21 -3514 -1z m2980 -2029 l0 -1225 -1222
2 -1223 3 -3 1223 -2 1222 1225 0 1225 0 0 -1225z" />
        <path d="M3985 4463 c-66 -15 -122 -40 -175 -79 -57 -42 -113 -124 -1318
-1931 -826 -1240 -1262 -1903 -1271 -1933 -20 -69 -17 -176 8 -240 43 -111
138 -207 248 -252 l58 -23 2520 -3 c1678 -1 2538 1 2575 8 122 23 229 102 278
208 24 50 27 69 26 157 0 116 -15 159 -86 246 -24 30 -587 874 -1252 1876
-910 1373 -1220 1834 -1257 1867 -53 48 -115 80 -181 96 -43 10 -136 12 -173
3z m955 -2379 c468 -691 849 -1258 847 -1260 -2 -2 -762 -3 -1688 -2 l-1685 3
831 1257 c456 691 833 1257 837 1258 3 0 390 -565 858 -1256z" />
    </g>
</svg>